<svg width="26" height="35" viewBox="0 0 26 35" fill="none" xmlns="http://www.w3.org/2000/svg">
<path fill-rule="evenodd" clip-rule="evenodd" d="M5.22169 3.53834L5.24154 3.54396C5.14667 3.6164 5.16531 3.597 5.22169 3.53834ZM5.41477 3.59193C5.43463 3.51516 5.45449 3.43884 5.47435 3.36307C5.36296 3.45 5.2884 3.50818 5.24154 3.54396C5.29928 3.56027 5.35703 3.57625 5.41477 3.59193ZM5.41477 3.59193C5.3083 4.00351 5.20183 4.4282 5.09535 4.8529L5.09535 4.85293C4.96902 5.35683 4.84269 5.86073 4.71636 6.34272C4.63214 6.518 4.71636 6.60563 4.8848 6.60563C5.01696 6.64001 5.15237 6.67439 5.29037 6.70944C5.85593 6.85304 6.46524 7.00775 7.07454 7.21909C7.83253 7.482 8.25363 8.27074 8.08519 8.97183C7.07455 13.5289 5.97969 17.9984 4.88483 22.4678L4.88482 22.4679L4.8848 22.4679C4.80058 23.0814 4.29526 23.4319 3.62149 23.2567C3.03195 23.169 2.35818 22.9937 1.76864 22.8185C1.51597 22.8185 1.43175 22.8185 1.34753 23.0814C1.09487 23.7825 0.757987 24.5712 0.421104 25.3599C0.336883 25.5352 0.273717 25.6886 0.210552 25.8419L0.21054 25.842C0.147378 25.9953 0.0842153 26.1487 0 26.3239C2.02129 26.8498 3.95835 27.3756 5.89542 27.9014L5.89545 27.9014C5.89545 28.0041 5.86655 28.0767 5.84261 28.1368C5.82568 28.1794 5.81123 28.2157 5.81123 28.252C5.39013 29.6541 5.05325 31.144 4.71636 32.6338C4.63214 32.8091 4.63214 32.8967 4.8848 32.9844C5.72701 33.1596 6.56922 33.3349 7.41143 33.5978C7.63403 33.675 7.66051 33.6162 7.72126 33.4812L7.72127 33.4812C7.72947 33.463 7.7383 33.4434 7.74831 33.4225C7.83253 33.0282 7.93781 32.6338 8.04308 32.2394C8.14836 31.8451 8.25363 31.4507 8.33785 31.0563C8.42207 30.662 8.52734 30.2676 8.63261 29.8733L8.63263 29.8732C8.7379 29.4789 8.84318 29.0845 8.9274 28.6901C9.68525 28.8654 10.3589 29.0406 11.0326 29.2159L11.0329 29.216C11.1543 29.2791 11.1445 29.3423 11.1295 29.4383C11.1237 29.4755 11.1171 29.5176 11.1171 29.5665C10.696 30.9687 10.3592 32.4585 10.0223 33.9484C9.93805 34.1236 9.93805 34.2113 10.1907 34.2989C10.5697 34.3865 10.9698 34.4961 11.3698 34.6056C11.7698 34.7152 12.1699 34.8247 12.5489 34.9124C12.9519 35.0801 12.9692 35.0071 13.0438 34.6933L13.0542 34.6495C13.2227 33.9484 13.3911 33.2254 13.5595 32.5023C13.728 31.7793 13.8964 31.0563 14.0649 30.3552C14.1491 30.0923 14.3175 30.0047 14.5702 30.0923C16.2546 30.3552 17.939 30.5305 19.7077 30.2676C21.0552 30.0923 22.2343 29.4789 23.1607 28.3396C23.9187 27.3756 24.3398 26.3239 24.6767 25.097C24.9293 24.133 25.0136 23.0814 24.8451 22.1174C24.5082 20.8905 23.8345 19.9264 22.8238 19.1377C22.6554 19.0063 22.4869 18.8967 22.3185 18.7872C22.1501 18.6776 21.9816 18.5681 21.8132 18.4366C21.9118 18.4366 21.9816 18.4065 22.0394 18.3816C22.0803 18.364 22.1152 18.349 22.1501 18.349C22.8238 18.0861 23.4976 17.7355 24.0029 17.2097C24.6767 16.5086 25.0136 15.6322 25.2662 14.6682C25.6031 13.266 25.5189 11.8638 24.7609 10.5493C24.1714 9.67293 23.4134 8.97183 22.5712 8.44601L19.7919 7.13146C19.5392 7.04382 19.455 6.95618 19.5392 6.69327C19.7077 6.25509 19.7919 5.8169 19.8761 5.37872C20.1288 4.32707 20.3814 3.27543 20.6341 2.13615C20.592 2.13615 20.5709 2.11424 20.5499 2.09233C20.5288 2.07042 20.5078 2.04851 20.4656 2.04851C20.0665 1.93525 19.683 1.83824 19.3084 1.74349C18.8135 1.61831 18.3342 1.49706 17.8548 1.34742C17.6864 1.25978 17.6021 1.34742 17.6021 1.52269L17.3495 2.57433C17.0126 3.71361 16.7599 4.76526 16.5073 5.90454C16.4792 5.93375 16.4511 5.9727 16.423 6.01165C16.3669 6.08955 16.3108 6.16745 16.2546 6.16745C15.9177 6.07981 15.5598 5.99218 15.2019 5.90454L15.2018 5.90453C14.8439 5.8169 14.486 5.72926 14.1491 5.64163C14.2333 5.46635 14.2333 5.37872 14.2333 5.29108C14.4017 4.58999 14.5702 3.86699 14.7386 3.14399L14.7386 3.14392C14.9071 2.42094 15.0755 1.69795 15.244 0.99687C15.3282 0.821596 15.3282 0.733959 15.0755 0.646322C14.2333 0.471049 13.4753 0.295775 12.6331 0.0328638C12.3804 -0.0547731 12.2962 0.0328639 12.212 0.295775C12.0436 1.04067 11.8751 1.76366 11.7067 2.48665L11.7067 2.48672C11.5382 3.20972 11.3698 3.93271 11.2014 4.67762C11.1171 4.94053 11.0329 5.02817 10.7803 4.94053C10.317 4.80908 9.85384 4.69953 9.39063 4.58999L9.39062 4.58998C8.9274 4.48044 8.46419 4.37089 8.00097 4.23944C7.53776 4.10798 7.07454 3.99843 6.61133 3.88889L6.61132 3.88889C6.21247 3.79456 5.81362 3.70024 5.41477 3.59193ZM9.54553 25.9878C9.63475 25.9878 9.72396 26.0793 9.72396 26.0793C9.94744 26.1366 10.1731 26.1962 10.4006 26.2562L10.4008 26.2563C11.6265 26.5797 12.9057 26.9172 14.1848 26.9944C15.2555 27.0859 16.2369 27.0859 17.2182 26.7199C18.9134 26.1708 19.6271 23.8832 18.6457 22.4192C18.1996 21.6871 17.4859 21.2296 16.7722 20.7721C15.2134 19.8839 13.4025 19.513 11.6658 19.1573L11.5083 19.125C11.2644 19.0416 11.2428 19.1102 11.1733 19.3309L11.1733 19.3309C11.1665 19.3523 11.1593 19.3752 11.1514 19.3995C11.0622 19.857 10.9507 20.2916 10.8392 20.7263L10.8392 20.7263L10.8392 20.7264C10.7277 21.161 10.6161 21.5956 10.5269 22.0531C10.3236 22.7831 10.1492 23.513 9.97078 24.2599L9.97077 24.2599C9.83607 24.8238 9.69905 25.3974 9.54553 25.9878ZM17.0929 15.7445C16.7445 15.8267 16.3091 15.909 16.1349 15.909C15.1242 15.909 14.2509 15.7792 13.3489 15.6451C13.0073 15.5943 12.6617 15.5429 12.3028 15.4978C12.1287 15.4566 11.9763 15.4155 11.8238 15.3744C11.6714 15.3333 11.519 15.2921 11.3448 15.251C11.1706 15.1688 11.0836 15.0865 11.1706 14.922C11.6932 13.1949 12.1287 11.55 12.5641 9.82291C12.6512 9.57618 12.7383 9.49393 12.9996 9.57618C13.259 9.64149 13.5149 9.70356 13.7681 9.76497C14.7901 10.0128 15.7673 10.2499 16.7445 10.6454C17.5284 10.9743 18.3122 11.4678 18.7477 12.208C19.6186 13.6061 18.7477 15.4155 17.0929 15.7445Z" fill="#B3B3B3"/>
</svg>
