<svg width="35" height="35" viewBox="0 0 35 35" fill="none" xmlns="http://www.w3.org/2000/svg">
<path d="M27.771 11.4793L28.5048 22.8644L24.9823 18.7895L27.771 11.4793ZM24.9823 18.7895L9.48678 23.5098L27.771 11.4793L24.9823 18.7895ZM7.23707 23.524L6.50479 12.1374L10.0257 16.2099L7.23707 23.524ZM10.0257 16.2115L25.5228 11.4935L7.23707 23.5225L10.0257 16.2115ZM34.9999 17.4077C34.9478 7.7413 27.0702 -0.0518209 17.4062 0.000259521C7.74209 0.0523399 -0.0518209 7.92911 0.000259495 17.5971C0.0523399 27.2651 7.92911 35.0512 17.5971 34.9999C27.2525 34.936 35.0362 27.0663 34.9999 17.4093V17.4077ZM17.5908 34.3891C8.26369 34.4365 0.664679 26.9148 0.617333 17.5877C0.569988 8.26053 8.09166 0.662312 17.418 0.614177C26.7443 0.566042 34.3299 8.08772 34.3915 17.4077V17.4156C34.4388 26.742 26.9172 34.341 17.5908 34.3891ZM13.0543 2.98305L12.6534 1.88857C12.1524 2.04639 11.6615 2.22394 11.1857 2.42516L11.5858 3.52437C12.0655 3.31867 12.5557 3.13824 13.0543 2.98384V2.98305ZM17.5103 2.31863C17.7723 2.31863 18.0343 2.31863 18.2923 2.33914V1.16812C18.0051 1.1555 17.7179 1.14919 17.4243 1.14919C17.1876 1.14919 16.9564 1.14919 16.726 1.17207V2.33993C16.9801 2.32573 17.242 2.31942 17.5103 2.31942V2.31863ZM8.3568 5.38427L7.60558 4.48786C7.18835 4.80189 6.78798 5.13772 6.40615 5.49395L7.16132 6.39195C7.54304 6.03597 7.94285 5.69989 8.35917 5.38506L8.3568 5.38427ZM4.76641 9.24295L3.75163 8.65823C3.47229 9.0946 3.21031 9.54834 2.96963 10.0131L3.98441 10.5986C4.22196 10.1336 4.48378 9.68133 4.76877 9.24374L4.76641 9.24295ZM31.0212 10.5978L32.0376 10.0131C31.7969 9.54755 31.5365 9.0946 31.2532 8.65902L30.2385 9.24374C30.5237 9.68131 30.7858 10.1336 31.0236 10.5986L31.0212 10.5978ZM23.4262 3.51884L23.8263 2.41411C23.3473 2.20883 22.8573 2.03022 22.3585 1.8791L21.9577 2.98384C22.4563 3.13601 22.9465 3.3146 23.4262 3.51884V3.51884ZM2.7116 14.0927L1.55794 13.8884C1.44124 14.3979 1.3509 14.913 1.28728 15.4318L2.44094 15.641C2.50564 15.1217 2.59586 14.6067 2.7116 14.0959V14.0927ZM32.5671 15.6362L33.72 15.4271C33.6547 14.9058 33.5653 14.3913 33.4517 13.8836L32.2964 14.0927C32.4146 14.603 32.505 15.1193 32.5671 15.6394V15.6362ZM27.8467 6.39195L28.5995 5.49632C28.2152 5.14202 27.8175 4.80428 27.4001 4.48786L26.6489 5.38506C27.0652 5.69989 27.465 6.03597 27.8467 6.39195V6.39195ZM7.16132 28.6074L6.40852 29.5054C6.79307 29.8589 7.19288 30.1943 7.60794 30.5115L8.35917 29.6167C7.9423 29.3017 7.54245 28.9648 7.16132 28.6074V28.6074ZM26.652 29.6167L27.4048 30.5139C27.8224 30.2 28.2228 29.8638 28.6042 29.507L27.8499 28.6074C27.4677 28.9649 27.0668 29.3018 26.6489 29.6167H26.652ZM30.2424 25.758L31.2572 26.3427C31.5371 25.904 31.7985 25.4526 32.0415 24.9886L31.0268 24.4007C30.7887 24.8669 30.5258 25.3199 30.2392 25.758H30.2424ZM2.44094 19.3615L1.28728 19.5699C1.35169 20.0878 1.44202 20.6021 1.55794 21.111L2.7116 20.9019C2.59586 20.3942 2.50564 19.8808 2.44094 19.3615ZM21.9537 32.0179L22.3546 33.1163C22.8525 32.9627 23.3424 32.7841 23.8223 32.5813L23.4215 31.4852C22.9417 31.6879 22.4518 31.8656 21.9537 32.0179V32.0179ZM32.5671 19.3615C32.5049 19.88 32.4146 20.3948 32.2964 20.9034L33.4501 21.1126C33.5662 20.6032 33.6562 20.0883 33.72 19.5699L32.5671 19.3615ZM3.98441 24.4007L2.96963 24.9886C3.2111 25.4542 3.47255 25.9055 3.75399 26.3427L4.76877 25.758C4.48302 25.32 4.22118 24.867 3.98441 24.4007V24.4007ZM11.5818 31.4852L11.1818 32.586C11.6621 32.7849 12.1513 32.9632 12.6495 33.121L13.0496 32.0202C12.5517 31.8665 12.0618 31.688 11.5818 31.4852V31.4852ZM17.5103 32.6823C17.2483 32.6823 16.9864 32.6823 16.7283 32.6634V33.8336C17.0156 33.8483 17.3049 33.8546 17.5963 33.8525C17.8331 33.8525 18.0643 33.8525 18.2947 33.832V32.661C18.028 32.6736 17.766 32.6799 17.5103 32.6799V32.6823Z" fill="#B3B3B3"/>
</svg>
