<svg width="31" height="35" viewBox="0 0 31 35" fill="none" xmlns="http://www.w3.org/2000/svg">
<path d="M29.7218 9.2144C28.3058 8.22243 26.7854 7.16413 25.3008 6.11477C25.2666 6.08802 25.2311 6.06314 25.1942 6.04025C25.02 5.89898 24.8232 5.78811 24.6122 5.71232L24.5958 5.70412C20.6264 4.74495 16.5914 3.76118 12.6877 2.80945C9.1446 1.9484 5.60426 1.08636 2.06666 0.223327C1.97648 0.198733 1.88631 0.174139 1.78793 0.148799C1.4682 0.0623467 1.09929 -0.0360304 0.705036 0.0131582C0.596793 0.0289443 0.493286 0.0681091 0.401706 0.127931L0.303329 0.209912C0.179085 0.335258 0.0839259 0.486393 0.0245943 0.652609L0 0.718194V1.09531L0.0163962 1.15269C2.25224 7.42721 4.55143 13.7912 6.76641 19.9502C8.47161 24.6909 10.2431 29.603 11.9737 34.4258C12.0803 34.7537 12.3843 34.9668 12.7614 34.9996H12.8434C13.0078 35.0043 13.1705 34.965 13.3147 34.8857C13.4588 34.8064 13.5791 34.6901 13.6632 34.5487L20.1591 25.0762C21.7416 22.7718 23.3243 20.4644 24.9073 18.154C25.5549 17.2113 26.2033 16.2595 26.851 15.3168C27.9175 13.7584 29.016 12.1478 30.1093 10.5827L30.1667 10.5008V10.4039C30.1913 10.1169 30.1995 9.52667 29.724 9.21142L29.7218 9.2144ZM22.111 12.6695C20.5854 13.4655 19.027 14.2853 17.4604 15.0976L20.1971 12.159C21.3366 10.9285 22.5261 9.65784 23.6902 8.41098L23.7148 8.38639C23.8237 8.25011 23.9418 8.12138 24.0681 8.00108C24.1583 7.9109 24.2567 7.82072 24.3468 7.71415C24.9535 8.13225 25.5684 8.55855 26.1594 8.97665C26.5857 9.28073 27.0202 9.5843 27.4629 9.88739C25.6593 10.8056 23.855 11.7506 22.108 12.6673L22.111 12.6695ZM18.1878 12.2738C17.0148 13.5452 15.8029 14.8487 14.5956 16.1366C12.2576 13.2993 9.87125 10.4203 7.55864 7.64036L4.40386 3.84316L4.39716 3.83496C4.15941 3.56368 3.92987 3.26855 3.70032 2.98981C3.55126 2.80125 3.39699 2.6209 3.24123 2.43234C4.19071 2.67828 5.15064 2.90634 6.09342 3.12992C6.92217 3.32668 7.78297 3.53163 8.62737 3.74553L22.9062 7.21332C21.3232 8.90287 19.7321 10.617 18.1908 12.2738H18.1878ZM14.0649 28.2578C14.1551 27.397 14.2535 26.5116 14.3362 25.6419C14.4108 24.945 14.4853 24.2311 14.5598 23.5506C14.6746 22.4595 14.7976 21.3282 14.8959 20.2207L14.9205 20.024C15.0025 19.3189 15.0845 18.5885 15.1337 17.8589C15.2298 17.8059 15.3294 17.7593 15.4318 17.7195C15.5579 17.6661 15.6811 17.6059 15.8007 17.5392C17.6952 16.5455 19.5924 15.5557 21.4924 14.57C23.3869 13.5862 25.3306 12.5689 27.2579 11.5605C25.5028 14.1027 23.7394 16.6694 22.0342 19.1714C20.566 21.3118 19.0568 23.5178 17.5558 25.6911C16.9656 26.5608 16.3507 27.4462 15.7672 28.2996C15.1113 29.2505 14.4391 30.2269 13.7825 31.2024C13.8645 30.2187 13.9628 29.2259 14.0694 28.2578H14.0649ZM2.63233 4.36783C2.52576 4.06972 2.40875 3.77161 2.31261 3.4817C4.52684 6.15576 6.75821 8.84772 8.93145 11.4562C10.0546 12.8089 11.1785 14.1541 12.3016 15.5157C12.5252 15.7699 12.745 16.0374 12.9582 16.3028C13.2369 16.6389 13.5157 16.9921 13.819 17.3283C13.7206 18.1727 13.6386 19.026 13.5485 19.8458C13.4911 20.4197 13.4337 20.9943 13.3681 21.5764V21.5846C13.3435 21.9572 13.2936 22.3224 13.2533 22.6839C13.1959 23.1839 13.0648 24.3153 13.0648 24.3153L13.0566 24.3727C12.9075 26.0294 12.7287 27.7026 12.5565 29.3265C12.482 29.9973 12.4171 30.6882 12.3426 31.3768C12.3016 31.2538 12.2524 31.1309 12.2114 31.0161C12.0885 30.6882 11.9655 30.3453 11.8507 30.007L10.9735 27.5714C8.19312 19.8359 5.41273 12.1014 2.63233 4.36783Z" fill="#B3B3B3"/>
</svg>
